<?xml version="1.0" standalone="no"?>
<!DOCTYPE svg PUBLIC "-//W3C//DTD SVG 20010904//EN"
 "http://www.w3.org/TR/2001/REC-SVG-20010904/DTD/svg10.dtd">
<svg version="1.0" xmlns="http://www.w3.org/2000/svg"
 width="1046.000000pt" height="1046.000000pt" viewBox="0 0 1046.000000 1046.000000"
 preserveAspectRatio="xMidYMid meet">
<metadata>
Created by potrace 1.14, written by Peter Selinger 2001-2017
</metadata>
<g transform="translate(0.000000,1046.000000) scale(0.100000,-0.100000)"
fill="#000000" stroke="none">
<path d="M5028 10056 c-40 -21 -91 -51 -113 -65 -22 -14 -49 -31 -60 -37 -11
-6 -68 -39 -127 -73 -59 -33 -112 -61 -118 -61 -5 0 -10 -4 -10 -10 0 -5 -7
-10 -15 -10 -9 0 -25 -8 -36 -18 -10 -10 -65 -44 -122 -75 -56 -31 -124 -70
-152 -87 -27 -16 -61 -35 -75 -42 -14 -7 -48 -27 -77 -45 -29 -18 -56 -33 -60
-33 -4 0 -34 -18 -67 -40 -32 -22 -62 -40 -67 -40 -4 0 -27 -13 -51 -29 -24
-16 -71 -44 -106 -62 -106 -58 -116 -63 -147 -84 -16 -12 -43 -27 -60 -35 -16
-8 -58 -32 -93 -52 -34 -21 -66 -38 -70 -38 -5 0 -26 -13 -48 -30 -21 -16 -43
-30 -48 -30 -4 0 -41 -20 -80 -45 -40 -25 -77 -45 -83 -45 -6 0 -16 -6 -22
-14 -12 -15 -76 -48 -87 -46 -4 1 -10 -2 -13 -7 -12 -17 -232 -146 -268 -157
-13 -4 -23 -12 -23 -18 0 -6 -3 -9 -6 -5 -4 3 -21 -5 -38 -18 -17 -13 -42 -28
-56 -34 -14 -6 -43 -23 -65 -36 -22 -14 -53 -32 -70 -40 -40 -19 -56 -34 -83
-72 l-22 -31 0 -1564 c0 -860 3 -1580 6 -1601 5 -28 2 -42 -11 -57 -14 -15
-16 -29 -10 -82 4 -35 10 -773 13 -1640 l7 -1577 29 -30 c26 -27 93 -69 246
-153 30 -17 63 -38 73 -46 10 -9 23 -17 30 -18 18 -3 193 -105 242 -141 6 -5
17 -9 24 -11 14 -3 168 -92 213 -123 15 -11 31 -19 35 -19 5 0 26 -12 48 -27
22 -15 60 -38 85 -51 25 -12 54 -28 65 -35 33 -20 154 -90 209 -120 28 -16 67
-39 86 -51 19 -12 47 -28 62 -36 23 -12 220 -126 502 -289 23 -13 79 -46 126
-74 106 -62 141 -82 210 -120 30 -16 98 -55 150 -87 52 -31 122 -71 155 -89
33 -18 67 -39 76 -47 8 -8 19 -14 24 -14 5 0 18 -8 29 -19 22 -19 111 -51 144
-51 10 0 33 5 51 11 65 23 61 -83 60 1673 l0 1591 28 15 c15 8 64 36 109 63
44 26 84 47 88 47 3 0 29 16 57 35 28 19 56 35 62 35 6 0 18 6 26 14 9 8 70
45 136 82 66 37 134 75 150 85 17 11 41 24 55 31 14 7 27 16 30 19 3 4 37 23
75 44 39 20 75 40 80 45 6 5 42 25 80 45 39 20 77 43 85 50 8 7 39 26 69 41
29 16 72 40 96 54 24 14 67 38 96 54 30 15 61 34 69 41 8 7 44 28 80 47 36 19
87 49 114 67 28 17 54 31 60 31 5 0 17 6 25 14 14 13 216 131 331 193 25 14
50 29 55 33 17 13 204 120 211 120 3 0 26 14 51 30 24 17 46 30 48 30 12 0
183 106 208 129 15 13 46 34 69 46 50 25 95 79 101 120 3 17 16 48 31 69 l26
39 0 1549 c0 1521 0 1550 -20 1592 -12 28 -33 52 -57 66 -56 34 -150 88 -213
123 -30 17 -75 43 -100 59 -25 15 -53 31 -62 34 -10 4 -18 10 -18 15 0 5 -5 9
-11 9 -9 0 -115 58 -199 110 -16 9 -183 104 -260 148 -25 14 -64 38 -87 53
-23 16 -46 29 -50 29 -8 0 -194 107 -243 140 -8 5 -28 16 -45 25 -16 8 -63 34
-102 57 -85 50 -443 256 -540 311 -37 21 -74 44 -83 52 -9 8 -19 15 -23 15 -3
0 -30 14 -59 32 -29 17 -73 42 -98 55 -69 36 -156 87 -171 100 -8 6 -34 22
-59 35 -25 14 -63 35 -85 48 -147 86 -183 94 -266 65 -38 -14 -48 -14 -96 0
-75 22 -112 17 -195 -29z"/>
</g>
</svg>
